<svg width="16" height="16" viewBox="0 0 16 16" fill="none" xmlns="http://www.w3.org/2000/svg">
<path d="M2.66666 10.6667V2.66668H1.33333V1.33334H3.33333C3.51014 1.33334 3.67971 1.40358 3.80473 1.52861C3.92976 1.65363 3.99999 1.8232 3.99999 2.00001V10H12.292L13.6253 4.66668H5.33333V3.33334H14.48C14.5813 3.33335 14.6813 3.35645 14.7724 3.4009C14.8635 3.44535 14.9432 3.50998 15.0056 3.58987C15.0679 3.66976 15.1112 3.76281 15.1322 3.86195C15.1532 3.96109 15.1513 4.06371 15.1267 4.16201L13.46 10.8287C13.4239 10.9728 13.3406 11.1008 13.2235 11.1922C13.1063 11.2837 12.9619 11.3333 12.8133 11.3333H3.33333C3.15652 11.3333 2.98695 11.2631 2.86192 11.1381C2.7369 11.0131 2.66666 10.8435 2.66666 10.6667V10.6667ZM3.99999 15.3333C3.64637 15.3333 3.30723 15.1929 3.05719 14.9428C2.80714 14.6928 2.66666 14.3536 2.66666 14C2.66666 13.6464 2.80714 13.3073 3.05719 13.0572C3.30723 12.8072 3.64637 12.6667 3.99999 12.6667C4.35362 12.6667 4.69276 12.8072 4.9428 13.0572C5.19285 13.3073 5.33333 13.6464 5.33333 14C5.33333 14.3536 5.19285 14.6928 4.9428 14.9428C4.69276 15.1929 4.35362 15.3333 3.99999 15.3333ZM12 15.3333C11.6464 15.3333 11.3072 15.1929 11.0572 14.9428C10.8071 14.6928 10.6667 14.3536 10.6667 14C10.6667 13.6464 10.8071 13.3073 11.0572 13.0572C11.3072 12.8072 11.6464 12.6667 12 12.6667C12.3536 12.6667 12.6928 12.8072 12.9428 13.0572C13.1929 13.3073 13.3333 13.6464 13.3333 14C13.3333 14.3536 13.1929 14.6928 12.9428 14.9428C12.6928 15.1929 12.3536 15.3333 12 15.3333Z" fill="#736C28"/>
</svg>
