<svg width="14" height="20" viewBox="0 0 14 20" fill="none" xmlns="http://www.w3.org/2000/svg">
<path d="M6.75 17.0099L10.4625 12.5549C11.1967 11.6738 11.6966 10.5513 11.8992 9.32922C12.1017 8.10715 11.9977 6.84047 11.6003 5.68933C11.2029 4.53819 10.53 3.55431 9.66669 2.86208C8.80334 2.16986 7.78833 1.80038 6.75 1.80038C5.71167 1.80038 4.69666 2.16986 3.83332 2.86208C2.96997 3.55431 2.29706 4.53819 1.89969 5.68933C1.50231 6.84047 1.39831 8.10715 1.60084 9.32922C1.80337 10.5513 2.30333 11.6738 3.0375 12.5549L6.75 17.0099ZM6.75 19.5551L1.977 13.8275C1.03301 12.6947 0.39014 11.2514 0.129696 9.6802C-0.130747 8.10895 0.00293013 6.48032 0.513824 5.00024C1.02472 3.52017 1.88988 2.25512 2.99991 1.36509C4.10994 0.475054 5.41498 0 6.75 0C8.08502 0 9.39006 0.475054 10.5001 1.36509C11.6101 2.25512 12.4753 3.52017 12.9862 5.00024C13.4971 6.48032 13.6308 8.10895 13.3703 9.6802C13.1099 11.2514 12.467 12.6947 11.523 13.8275L6.75 19.5551V19.5551ZM6.75 9.89993C7.14783 9.89993 7.52936 9.71029 7.81066 9.37272C8.09197 9.03516 8.25 8.57732 8.25 8.09993C8.25 7.62254 8.09197 7.1647 7.81066 6.82714C7.52936 6.48957 7.14783 6.29993 6.75 6.29993C6.35218 6.29993 5.97065 6.48957 5.68934 6.82714C5.40804 7.1647 5.25 7.62254 5.25 8.09993C5.25 8.57732 5.40804 9.03516 5.68934 9.37272C5.97065 9.71029 6.35218 9.89993 6.75 9.89993ZM6.75 11.6999C5.95435 11.6999 5.19129 11.3206 4.62868 10.6455C4.06607 9.97038 3.75 9.05471 3.75 8.09993C3.75 7.14515 4.06607 6.22948 4.62868 5.55435C5.19129 4.87921 5.95435 4.49993 6.75 4.49993C7.54565 4.49993 8.30871 4.87921 8.87132 5.55435C9.43393 6.22948 9.75 7.14515 9.75 8.09993C9.75 9.05471 9.43393 9.97038 8.87132 10.6455C8.30871 11.3206 7.54565 11.6999 6.75 11.6999Z" fill="#736C28"/>
</svg>
